<mxfile host="app.diagrams.net" modified="2023-03-03T15:52:30.574Z" agent="5.0 (Windows NT 10.0; Win64; x64) AppleWebKit/537.36 (KHTML, like Gecko) Chrome/110.0.0.0 Safari/537.36" etag="lyNn_niPv9Hsfqx6d0xl" version="20.8.23" type="github">
  <diagram id="C5RBs43oDa-KdzZeNtuy" name="Page-1">
    <mxGraphModel dx="1434" dy="687" grid="1" gridSize="10" guides="1" tooltips="1" connect="1" arrows="1" fold="1" page="1" pageScale="1" pageWidth="827" pageHeight="1169" math="0" shadow="0">
      <root>
        <mxCell id="WIyWlLk6GJQsqaUBKTNV-0" />
        <mxCell id="WIyWlLk6GJQsqaUBKTNV-1" parent="WIyWlLk6GJQsqaUBKTNV-0" />
        <mxCell id="hAIs70wJJehLwJ7YlZDq-42" style="edgeStyle=orthogonalEdgeStyle;rounded=0;orthogonalLoop=1;jettySize=auto;html=1;exitX=0;exitY=0.5;exitDx=0;exitDy=0;entryX=0.5;entryY=0;entryDx=0;entryDy=0;fontSize=12;fontFamily=Verdana;" edge="1" parent="WIyWlLk6GJQsqaUBKTNV-1" source="hAIs70wJJehLwJ7YlZDq-48" target="hAIs70wJJehLwJ7YlZDq-96">
          <mxGeometry relative="1" as="geometry">
            <mxPoint x="270" y="194" as="targetPoint" />
          </mxGeometry>
        </mxCell>
        <mxCell id="hAIs70wJJehLwJ7YlZDq-95" value="Register" style="edgeLabel;html=1;align=center;verticalAlign=middle;resizable=0;points=[];fontSize=12;" vertex="1" connectable="0" parent="hAIs70wJJehLwJ7YlZDq-42">
          <mxGeometry x="0.007" y="2" relative="1" as="geometry">
            <mxPoint x="19" y="-2" as="offset" />
          </mxGeometry>
        </mxCell>
        <mxCell id="hAIs70wJJehLwJ7YlZDq-44" style="edgeStyle=orthogonalEdgeStyle;rounded=0;orthogonalLoop=1;jettySize=auto;html=1;exitX=1;exitY=0.5;exitDx=0;exitDy=0;entryX=0;entryY=0.5;entryDx=0;entryDy=0;fontSize=12;fontFamily=Verdana;" edge="1" parent="WIyWlLk6GJQsqaUBKTNV-1" source="hAIs70wJJehLwJ7YlZDq-48" target="hAIs70wJJehLwJ7YlZDq-54">
          <mxGeometry relative="1" as="geometry">
            <Array as="points">
              <mxPoint x="500" y="159" />
              <mxPoint x="500" y="159" />
            </Array>
          </mxGeometry>
        </mxCell>
        <mxCell id="hAIs70wJJehLwJ7YlZDq-45" value="Exit" style="edgeLabel;html=1;align=center;verticalAlign=middle;resizable=0;points=[];fontSize=12;fontFamily=Verdana;" vertex="1" connectable="0" parent="hAIs70wJJehLwJ7YlZDq-44">
          <mxGeometry x="0.2833" y="3" relative="1" as="geometry">
            <mxPoint x="-17" y="3" as="offset" />
          </mxGeometry>
        </mxCell>
        <mxCell id="hAIs70wJJehLwJ7YlZDq-46" style="edgeStyle=orthogonalEdgeStyle;rounded=0;orthogonalLoop=1;jettySize=auto;html=1;exitX=0.5;exitY=1;exitDx=0;exitDy=0;entryX=0.5;entryY=0;entryDx=0;entryDy=0;fontSize=12;fontFamily=Verdana;" edge="1" parent="WIyWlLk6GJQsqaUBKTNV-1" source="hAIs70wJJehLwJ7YlZDq-48" target="hAIs70wJJehLwJ7YlZDq-62">
          <mxGeometry relative="1" as="geometry">
            <Array as="points">
              <mxPoint x="388" y="274" />
              <mxPoint x="384" y="274" />
              <mxPoint x="384" y="304" />
            </Array>
          </mxGeometry>
        </mxCell>
        <mxCell id="hAIs70wJJehLwJ7YlZDq-47" value="LogIn" style="edgeLabel;html=1;align=center;verticalAlign=middle;resizable=0;points=[];fontSize=12;fontFamily=Verdana;" vertex="1" connectable="0" parent="hAIs70wJJehLwJ7YlZDq-46">
          <mxGeometry x="0.25" y="-4" relative="1" as="geometry">
            <mxPoint x="1" y="5" as="offset" />
          </mxGeometry>
        </mxCell>
        <mxCell id="hAIs70wJJehLwJ7YlZDq-90" style="edgeStyle=orthogonalEdgeStyle;rounded=0;orthogonalLoop=1;jettySize=auto;html=1;entryX=0.5;entryY=0;entryDx=0;entryDy=0;exitX=0.539;exitY=0.873;exitDx=0;exitDy=0;exitPerimeter=0;fontSize=12;" edge="1" parent="WIyWlLk6GJQsqaUBKTNV-1" source="hAIs70wJJehLwJ7YlZDq-86" target="hAIs70wJJehLwJ7YlZDq-48">
          <mxGeometry relative="1" as="geometry">
            <mxPoint x="480" y="154" as="sourcePoint" />
          </mxGeometry>
        </mxCell>
        <mxCell id="hAIs70wJJehLwJ7YlZDq-48" value="LogIn/Register" style="rhombus;whiteSpace=wrap;html=1;shadow=0;fontFamily=Verdana;fontSize=12;align=center;strokeWidth=1;spacing=6;spacingTop=-4;fillColor=#e3c800;fontColor=#000000;strokeColor=#B09500;" vertex="1" parent="WIyWlLk6GJQsqaUBKTNV-1">
          <mxGeometry x="337.5" y="124" width="100" height="70" as="geometry" />
        </mxCell>
        <mxCell id="hAIs70wJJehLwJ7YlZDq-87" style="edgeStyle=orthogonalEdgeStyle;rounded=0;orthogonalLoop=1;jettySize=auto;html=1;exitX=0.5;exitY=1;exitDx=0;exitDy=0;entryX=0.5;entryY=0;entryDx=0;entryDy=0;fontSize=12;" edge="1" parent="WIyWlLk6GJQsqaUBKTNV-1" source="hAIs70wJJehLwJ7YlZDq-53" target="hAIs70wJJehLwJ7YlZDq-86">
          <mxGeometry relative="1" as="geometry" />
        </mxCell>
        <mxCell id="hAIs70wJJehLwJ7YlZDq-53" value="Start" style="ellipse;whiteSpace=wrap;html=1;fontSize=12;fontFamily=Verdana;fillColor=#60a917;fontColor=#ffffff;strokeColor=#2D7600;" vertex="1" parent="WIyWlLk6GJQsqaUBKTNV-1">
          <mxGeometry x="332.5" y="14" width="110" height="30" as="geometry" />
        </mxCell>
        <mxCell id="hAIs70wJJehLwJ7YlZDq-54" value="End" style="ellipse;whiteSpace=wrap;html=1;fontSize=12;fontFamily=Verdana;fillColor=#e51400;fontColor=#ffffff;strokeColor=#B20000;" vertex="1" parent="WIyWlLk6GJQsqaUBKTNV-1">
          <mxGeometry x="530" y="144" width="110" height="30" as="geometry" />
        </mxCell>
        <mxCell id="hAIs70wJJehLwJ7YlZDq-59" style="edgeStyle=orthogonalEdgeStyle;rounded=0;orthogonalLoop=1;jettySize=auto;html=1;entryX=0.5;entryY=0;entryDx=0;entryDy=0;exitX=0.5;exitY=0.88;exitDx=0;exitDy=0;exitPerimeter=0;fontSize=12;fontFamily=Verdana;" edge="1" parent="WIyWlLk6GJQsqaUBKTNV-1" source="hAIs70wJJehLwJ7YlZDq-77" target="hAIs70wJJehLwJ7YlZDq-73">
          <mxGeometry relative="1" as="geometry">
            <mxPoint x="384" y="441" as="sourcePoint" />
            <Array as="points">
              <mxPoint x="384" y="481" />
              <mxPoint x="380" y="481" />
            </Array>
          </mxGeometry>
        </mxCell>
        <mxCell id="hAIs70wJJehLwJ7YlZDq-60" style="edgeStyle=orthogonalEdgeStyle;rounded=0;orthogonalLoop=1;jettySize=auto;html=1;exitX=0.5;exitY=1;exitDx=0;exitDy=0;entryX=0.5;entryY=0;entryDx=0;entryDy=0;entryPerimeter=0;fontSize=12;fontFamily=Verdana;" edge="1" parent="WIyWlLk6GJQsqaUBKTNV-1" source="hAIs70wJJehLwJ7YlZDq-62" target="hAIs70wJJehLwJ7YlZDq-77">
          <mxGeometry relative="1" as="geometry" />
        </mxCell>
        <mxCell id="hAIs70wJJehLwJ7YlZDq-61" value="Yes" style="edgeLabel;html=1;align=center;verticalAlign=middle;resizable=0;points=[];fontSize=12;fontFamily=Verdana;" vertex="1" connectable="0" parent="hAIs70wJJehLwJ7YlZDq-60">
          <mxGeometry x="0.3056" y="2" relative="1" as="geometry">
            <mxPoint x="-2" y="-3" as="offset" />
          </mxGeometry>
        </mxCell>
        <mxCell id="hAIs70wJJehLwJ7YlZDq-91" style="edgeStyle=orthogonalEdgeStyle;rounded=0;orthogonalLoop=1;jettySize=auto;html=1;exitX=1;exitY=0.5;exitDx=0;exitDy=0;entryX=1;entryY=1;entryDx=0;entryDy=0;fontSize=12;" edge="1" parent="WIyWlLk6GJQsqaUBKTNV-1" source="hAIs70wJJehLwJ7YlZDq-62" target="hAIs70wJJehLwJ7YlZDq-48">
          <mxGeometry relative="1" as="geometry" />
        </mxCell>
        <mxCell id="hAIs70wJJehLwJ7YlZDq-92" value="Return" style="edgeLabel;html=1;align=center;verticalAlign=middle;resizable=0;points=[];fontSize=12;" vertex="1" connectable="0" parent="hAIs70wJJehLwJ7YlZDq-91">
          <mxGeometry x="-0.6399" y="-3" relative="1" as="geometry">
            <mxPoint y="-16" as="offset" />
          </mxGeometry>
        </mxCell>
        <mxCell id="hAIs70wJJehLwJ7YlZDq-93" style="edgeStyle=orthogonalEdgeStyle;rounded=0;orthogonalLoop=1;jettySize=auto;html=1;exitX=0;exitY=0.5;exitDx=0;exitDy=0;fontSize=12;" edge="1" parent="WIyWlLk6GJQsqaUBKTNV-1" source="hAIs70wJJehLwJ7YlZDq-62">
          <mxGeometry relative="1" as="geometry">
            <mxPoint x="369" y="284" as="targetPoint" />
            <Array as="points">
              <mxPoint x="309" y="339.11" />
              <mxPoint x="309" y="284.11" />
            </Array>
          </mxGeometry>
        </mxCell>
        <mxCell id="hAIs70wJJehLwJ7YlZDq-94" value="No" style="edgeLabel;html=1;align=center;verticalAlign=middle;resizable=0;points=[];fontSize=12;" vertex="1" connectable="0" parent="hAIs70wJJehLwJ7YlZDq-93">
          <mxGeometry x="-0.4217" y="-1" relative="1" as="geometry">
            <mxPoint as="offset" />
          </mxGeometry>
        </mxCell>
        <mxCell id="hAIs70wJJehLwJ7YlZDq-62" value="Successful Login?" style="rhombus;whiteSpace=wrap;html=1;shadow=0;fontFamily=Verdana;fontSize=12;align=center;strokeWidth=1;spacing=6;spacingTop=-4;fillColor=#e3c800;fontColor=#000000;strokeColor=#B09500;" vertex="1" parent="WIyWlLk6GJQsqaUBKTNV-1">
          <mxGeometry x="336.5" y="304.11" width="100" height="70" as="geometry" />
        </mxCell>
        <mxCell id="hAIs70wJJehLwJ7YlZDq-65" style="edgeStyle=orthogonalEdgeStyle;rounded=0;orthogonalLoop=1;jettySize=auto;html=1;exitX=1;exitY=0.5;exitDx=0;exitDy=0;entryX=0;entryY=0.5;entryDx=0;entryDy=0;entryPerimeter=0;fontSize=12;fontFamily=Verdana;" edge="1" parent="WIyWlLk6GJQsqaUBKTNV-1" source="hAIs70wJJehLwJ7YlZDq-73" target="hAIs70wJJehLwJ7YlZDq-76">
          <mxGeometry relative="1" as="geometry" />
        </mxCell>
        <mxCell id="hAIs70wJJehLwJ7YlZDq-101" value="Check User Info" style="edgeLabel;html=1;align=center;verticalAlign=middle;resizable=0;points=[];fontSize=12;" vertex="1" connectable="0" parent="hAIs70wJJehLwJ7YlZDq-65">
          <mxGeometry x="0.2717" y="3" relative="1" as="geometry">
            <mxPoint x="-15" y="3" as="offset" />
          </mxGeometry>
        </mxCell>
        <mxCell id="hAIs70wJJehLwJ7YlZDq-67" style="edgeStyle=orthogonalEdgeStyle;rounded=0;orthogonalLoop=1;jettySize=auto;html=1;exitX=0;exitY=0.5;exitDx=0;exitDy=0;entryX=0.5;entryY=0;entryDx=0;entryDy=0;fontSize=12;fontFamily=Verdana;" edge="1" parent="WIyWlLk6GJQsqaUBKTNV-1" source="hAIs70wJJehLwJ7YlZDq-73" target="hAIs70wJJehLwJ7YlZDq-102">
          <mxGeometry relative="1" as="geometry">
            <mxPoint x="254.5" y="591" as="targetPoint" />
          </mxGeometry>
        </mxCell>
        <mxCell id="hAIs70wJJehLwJ7YlZDq-68" value="Manage" style="edgeLabel;html=1;align=center;verticalAlign=middle;resizable=0;points=[];fontSize=12;fontFamily=Verdana;" vertex="1" connectable="0" parent="hAIs70wJJehLwJ7YlZDq-67">
          <mxGeometry x="0.2071" y="1" relative="1" as="geometry">
            <mxPoint x="19" y="-1" as="offset" />
          </mxGeometry>
        </mxCell>
        <mxCell id="hAIs70wJJehLwJ7YlZDq-69" style="edgeStyle=orthogonalEdgeStyle;rounded=0;orthogonalLoop=1;jettySize=auto;html=1;exitX=0.5;exitY=1;exitDx=0;exitDy=0;entryX=0.5;entryY=0;entryDx=0;entryDy=0;fontSize=12;fontFamily=Verdana;" edge="1" parent="WIyWlLk6GJQsqaUBKTNV-1" source="hAIs70wJJehLwJ7YlZDq-73" target="hAIs70wJJehLwJ7YlZDq-106">
          <mxGeometry relative="1" as="geometry">
            <mxPoint x="385.5" y="641" as="targetPoint" />
          </mxGeometry>
        </mxCell>
        <mxCell id="hAIs70wJJehLwJ7YlZDq-104" value="Book" style="edgeLabel;html=1;align=center;verticalAlign=middle;resizable=0;points=[];fontSize=12;" vertex="1" connectable="0" parent="hAIs70wJJehLwJ7YlZDq-69">
          <mxGeometry x="-0.2256" y="5" relative="1" as="geometry">
            <mxPoint x="-5" as="offset" />
          </mxGeometry>
        </mxCell>
        <mxCell id="hAIs70wJJehLwJ7YlZDq-140" style="edgeStyle=orthogonalEdgeStyle;rounded=0;orthogonalLoop=1;jettySize=auto;html=1;exitX=0;exitY=0;exitDx=0;exitDy=0;fontSize=12;entryX=0;entryY=0;entryDx=0;entryDy=0;" edge="1" parent="WIyWlLk6GJQsqaUBKTNV-1" source="hAIs70wJJehLwJ7YlZDq-73" target="hAIs70wJJehLwJ7YlZDq-48">
          <mxGeometry relative="1" as="geometry">
            <mxPoint x="150" y="144" as="targetPoint" />
            <Array as="points">
              <mxPoint x="362" y="494" />
              <mxPoint x="140" y="494" />
              <mxPoint x="140" y="142" />
            </Array>
          </mxGeometry>
        </mxCell>
        <mxCell id="hAIs70wJJehLwJ7YlZDq-143" value="Log Out" style="edgeLabel;html=1;align=center;verticalAlign=middle;resizable=0;points=[];fontSize=12;" vertex="1" connectable="0" parent="hAIs70wJJehLwJ7YlZDq-140">
          <mxGeometry x="-0.7674" relative="1" as="geometry">
            <mxPoint as="offset" />
          </mxGeometry>
        </mxCell>
        <mxCell id="hAIs70wJJehLwJ7YlZDq-73" value="Main Menu Selection" style="rhombus;whiteSpace=wrap;html=1;fillStyle=auto;fontSize=12;fontFamily=Verdana;fillColor=#e3c800;fontColor=#000000;strokeColor=#B09500;" vertex="1" parent="WIyWlLk6GJQsqaUBKTNV-1">
          <mxGeometry x="336.5" y="491" width="95" height="80" as="geometry" />
        </mxCell>
        <mxCell id="hAIs70wJJehLwJ7YlZDq-76" value="Display Client" style="shape=display;whiteSpace=wrap;html=1;fontSize=12;fontFamily=Verdana;fillColor=#d80073;fontColor=#ffffff;strokeColor=#A50040;" vertex="1" parent="WIyWlLk6GJQsqaUBKTNV-1">
          <mxGeometry x="535.5" y="521" width="110" height="40" as="geometry" />
        </mxCell>
        <mxCell id="hAIs70wJJehLwJ7YlZDq-77" value="Load Flights and Airplanes" style="strokeWidth=2;html=1;shape=mxgraph.flowchart.multi-document;whiteSpace=wrap;fontSize=12;fontFamily=Verdana;fillStyle=auto;fillColor=#6a00ff;fontColor=#ffffff;strokeColor=#3700CC;" vertex="1" parent="WIyWlLk6GJQsqaUBKTNV-1">
          <mxGeometry x="326.25" y="394" width="113.5" height="60" as="geometry" />
        </mxCell>
        <mxCell id="hAIs70wJJehLwJ7YlZDq-86" value="Load Clients" style="shape=document;whiteSpace=wrap;html=1;boundedLbl=1;fillStyle=auto;fontSize=12;fontFamily=Verdana;fillColor=#6a00ff;fontColor=#ffffff;strokeColor=#3700CC;" vertex="1" parent="WIyWlLk6GJQsqaUBKTNV-1">
          <mxGeometry x="340.5" y="64" width="88.5" height="50" as="geometry" />
        </mxCell>
        <mxCell id="hAIs70wJJehLwJ7YlZDq-99" style="edgeStyle=orthogonalEdgeStyle;rounded=0;orthogonalLoop=1;jettySize=auto;html=1;exitX=0.5;exitY=1;exitDx=0;exitDy=0;entryX=0.5;entryY=0;entryDx=0;entryDy=0;fontSize=12;" edge="1" parent="WIyWlLk6GJQsqaUBKTNV-1" source="hAIs70wJJehLwJ7YlZDq-96" target="hAIs70wJJehLwJ7YlZDq-98">
          <mxGeometry relative="1" as="geometry" />
        </mxCell>
        <mxCell id="hAIs70wJJehLwJ7YlZDq-96" value="Input Client Data" style="shape=parallelogram;perimeter=parallelogramPerimeter;whiteSpace=wrap;html=1;fixedSize=1;fillStyle=auto;fontSize=12;fontFamily=Verdana;fillColor=#1ba1e2;fontColor=#ffffff;strokeColor=#006EAF;" vertex="1" parent="WIyWlLk6GJQsqaUBKTNV-1">
          <mxGeometry x="155" y="184" width="159" height="40" as="geometry" />
        </mxCell>
        <mxCell id="hAIs70wJJehLwJ7YlZDq-100" style="edgeStyle=orthogonalEdgeStyle;rounded=0;orthogonalLoop=1;jettySize=auto;html=1;exitX=1;exitY=0.5;exitDx=0;exitDy=0;fontSize=12;" edge="1" parent="WIyWlLk6GJQsqaUBKTNV-1" source="hAIs70wJJehLwJ7YlZDq-98">
          <mxGeometry relative="1" as="geometry">
            <mxPoint x="373" y="258.7777777777778" as="targetPoint" />
          </mxGeometry>
        </mxCell>
        <mxCell id="hAIs70wJJehLwJ7YlZDq-98" value="Save Client" style="shape=document;whiteSpace=wrap;html=1;boundedLbl=1;fillStyle=auto;fontSize=12;fontFamily=Verdana;fillColor=#6a00ff;fontColor=#ffffff;strokeColor=#3700CC;" vertex="1" parent="WIyWlLk6GJQsqaUBKTNV-1">
          <mxGeometry x="190.25" y="244" width="88.5" height="50" as="geometry" />
        </mxCell>
        <mxCell id="hAIs70wJJehLwJ7YlZDq-102" value="Manage" style="rounded=0;whiteSpace=wrap;html=1;fillColor=#bac8d3;strokeColor=#23445d;fillStyle=hatch;fontSize=12;" vertex="1" parent="WIyWlLk6GJQsqaUBKTNV-1">
          <mxGeometry x="205.5" y="571" width="94" height="30" as="geometry" />
        </mxCell>
        <mxCell id="hAIs70wJJehLwJ7YlZDq-109" style="edgeStyle=orthogonalEdgeStyle;rounded=0;orthogonalLoop=1;jettySize=auto;html=1;exitX=1;exitY=0.5;exitDx=0;exitDy=0;entryX=0;entryY=0.5;entryDx=0;entryDy=0;fontSize=12;" edge="1" parent="WIyWlLk6GJQsqaUBKTNV-1" source="hAIs70wJJehLwJ7YlZDq-106" target="hAIs70wJJehLwJ7YlZDq-108">
          <mxGeometry relative="1" as="geometry" />
        </mxCell>
        <mxCell id="hAIs70wJJehLwJ7YlZDq-114" value="Hotel" style="edgeLabel;html=1;align=center;verticalAlign=middle;resizable=0;points=[];fontSize=12;" vertex="1" connectable="0" parent="hAIs70wJJehLwJ7YlZDq-109">
          <mxGeometry x="0.2903" y="-2" relative="1" as="geometry">
            <mxPoint x="-12" y="-2" as="offset" />
          </mxGeometry>
        </mxCell>
        <mxCell id="hAIs70wJJehLwJ7YlZDq-110" style="edgeStyle=orthogonalEdgeStyle;rounded=0;orthogonalLoop=1;jettySize=auto;html=1;exitX=0;exitY=0.5;exitDx=0;exitDy=0;entryX=1;entryY=0.5;entryDx=0;entryDy=0;fontSize=12;" edge="1" parent="WIyWlLk6GJQsqaUBKTNV-1" source="hAIs70wJJehLwJ7YlZDq-106" target="hAIs70wJJehLwJ7YlZDq-107">
          <mxGeometry relative="1" as="geometry" />
        </mxCell>
        <mxCell id="hAIs70wJJehLwJ7YlZDq-113" value="Car" style="edgeLabel;html=1;align=center;verticalAlign=middle;resizable=0;points=[];fontSize=12;" vertex="1" connectable="0" parent="hAIs70wJJehLwJ7YlZDq-110">
          <mxGeometry x="0.3073" y="4" relative="1" as="geometry">
            <mxPoint x="7" y="-4" as="offset" />
          </mxGeometry>
        </mxCell>
        <mxCell id="hAIs70wJJehLwJ7YlZDq-117" style="edgeStyle=orthogonalEdgeStyle;rounded=0;orthogonalLoop=1;jettySize=auto;html=1;exitX=0.5;exitY=1;exitDx=0;exitDy=0;entryX=0.5;entryY=0;entryDx=0;entryDy=0;fontSize=12;" edge="1" parent="WIyWlLk6GJQsqaUBKTNV-1" source="hAIs70wJJehLwJ7YlZDq-106" target="hAIs70wJJehLwJ7YlZDq-115">
          <mxGeometry relative="1" as="geometry" />
        </mxCell>
        <mxCell id="hAIs70wJJehLwJ7YlZDq-106" value="Inventory Selection" style="rhombus;whiteSpace=wrap;html=1;fillStyle=auto;fontSize=12;fontFamily=Verdana;fillColor=#e3c800;fontColor=#000000;strokeColor=#B09500;" vertex="1" parent="WIyWlLk6GJQsqaUBKTNV-1">
          <mxGeometry x="339.63" y="597.0300000000001" width="95" height="80" as="geometry" />
        </mxCell>
        <mxCell id="hAIs70wJJehLwJ7YlZDq-107" value="Car Interactions" style="rounded=0;whiteSpace=wrap;html=1;fillColor=#bac8d3;strokeColor=#23445d;fillStyle=hatch;fontSize=12;" vertex="1" parent="WIyWlLk6GJQsqaUBKTNV-1">
          <mxGeometry x="191.88" y="622.0300000000001" width="94" height="30" as="geometry" />
        </mxCell>
        <mxCell id="hAIs70wJJehLwJ7YlZDq-108" value="Hotel Interactions" style="rounded=0;whiteSpace=wrap;html=1;fillColor=#bac8d3;strokeColor=#23445d;fillStyle=hatch;fontSize=12;" vertex="1" parent="WIyWlLk6GJQsqaUBKTNV-1">
          <mxGeometry x="487.13" y="622.0300000000001" width="94" height="30" as="geometry" />
        </mxCell>
        <mxCell id="hAIs70wJJehLwJ7YlZDq-130" style="edgeStyle=orthogonalEdgeStyle;rounded=0;orthogonalLoop=1;jettySize=auto;html=1;exitX=0.5;exitY=1;exitDx=0;exitDy=0;entryX=0.5;entryY=0;entryDx=0;entryDy=0;fontSize=12;" edge="1" parent="WIyWlLk6GJQsqaUBKTNV-1" source="hAIs70wJJehLwJ7YlZDq-115" target="hAIs70wJJehLwJ7YlZDq-129">
          <mxGeometry relative="1" as="geometry" />
        </mxCell>
        <mxCell id="hAIs70wJJehLwJ7YlZDq-115" value="Flight Query Details" style="shape=parallelogram;perimeter=parallelogramPerimeter;whiteSpace=wrap;html=1;fixedSize=1;fillStyle=auto;fontSize=12;fontFamily=Verdana;fillColor=#1ba1e2;fontColor=#ffffff;strokeColor=#006EAF;" vertex="1" parent="WIyWlLk6GJQsqaUBKTNV-1">
          <mxGeometry x="307.63" y="690.0300000000001" width="159" height="40" as="geometry" />
        </mxCell>
        <mxCell id="hAIs70wJJehLwJ7YlZDq-121" style="edgeStyle=orthogonalEdgeStyle;rounded=0;orthogonalLoop=1;jettySize=auto;html=1;exitX=0;exitY=0;exitDx=56.25;exitDy=50;exitPerimeter=0;entryX=0.5;entryY=0;entryDx=0;entryDy=0;fontSize=12;" edge="1" parent="WIyWlLk6GJQsqaUBKTNV-1" source="hAIs70wJJehLwJ7YlZDq-118" target="hAIs70wJJehLwJ7YlZDq-120">
          <mxGeometry relative="1" as="geometry" />
        </mxCell>
        <mxCell id="hAIs70wJJehLwJ7YlZDq-118" value="Display Query Results" style="shape=display;whiteSpace=wrap;html=1;fontSize=12;fontFamily=Verdana;fillColor=#d80073;fontColor=#ffffff;strokeColor=#A50040;" vertex="1" parent="WIyWlLk6GJQsqaUBKTNV-1">
          <mxGeometry x="333.13" y="840.0300000000001" width="110" height="50" as="geometry" />
        </mxCell>
        <mxCell id="hAIs70wJJehLwJ7YlZDq-124" style="edgeStyle=orthogonalEdgeStyle;rounded=0;orthogonalLoop=1;jettySize=auto;html=1;exitX=0.5;exitY=1;exitDx=0;exitDy=0;entryX=0;entryY=0;entryDx=58.75;entryDy=0;entryPerimeter=0;fontSize=12;" edge="1" parent="WIyWlLk6GJQsqaUBKTNV-1" source="hAIs70wJJehLwJ7YlZDq-120" target="hAIs70wJJehLwJ7YlZDq-123">
          <mxGeometry relative="1" as="geometry" />
        </mxCell>
        <mxCell id="hAIs70wJJehLwJ7YlZDq-120" value="Flight Selection" style="shape=parallelogram;perimeter=parallelogramPerimeter;whiteSpace=wrap;html=1;fixedSize=1;fillStyle=auto;fontSize=12;fontFamily=Verdana;fillColor=#1ba1e2;fontColor=#ffffff;strokeColor=#006EAF;" vertex="1" parent="WIyWlLk6GJQsqaUBKTNV-1">
          <mxGeometry x="327.89" y="910.0300000000001" width="131.25" height="40" as="geometry" />
        </mxCell>
        <mxCell id="hAIs70wJJehLwJ7YlZDq-138" style="edgeStyle=orthogonalEdgeStyle;rounded=0;orthogonalLoop=1;jettySize=auto;html=1;exitX=0.5;exitY=1;exitDx=0;exitDy=0;entryX=0.5;entryY=0;entryDx=0;entryDy=0;entryPerimeter=0;fontSize=12;" edge="1" parent="WIyWlLk6GJQsqaUBKTNV-1" source="hAIs70wJJehLwJ7YlZDq-122" target="hAIs70wJJehLwJ7YlZDq-136">
          <mxGeometry relative="1" as="geometry" />
        </mxCell>
        <mxCell id="hAIs70wJJehLwJ7YlZDq-122" value="Seat Selection" style="shape=parallelogram;perimeter=parallelogramPerimeter;whiteSpace=wrap;html=1;fixedSize=1;fillStyle=auto;fontSize=12;fontFamily=Verdana;fillColor=#1ba1e2;fontColor=#ffffff;strokeColor=#006EAF;" vertex="1" parent="WIyWlLk6GJQsqaUBKTNV-1">
          <mxGeometry x="327.88" y="1030.03" width="131.25" height="40" as="geometry" />
        </mxCell>
        <mxCell id="hAIs70wJJehLwJ7YlZDq-125" style="edgeStyle=orthogonalEdgeStyle;rounded=0;orthogonalLoop=1;jettySize=auto;html=1;exitX=0;exitY=0;exitDx=58.75;exitDy=40;exitPerimeter=0;entryX=0.5;entryY=0;entryDx=0;entryDy=0;fontSize=12;" edge="1" parent="WIyWlLk6GJQsqaUBKTNV-1" source="hAIs70wJJehLwJ7YlZDq-123" target="hAIs70wJJehLwJ7YlZDq-122">
          <mxGeometry relative="1" as="geometry" />
        </mxCell>
        <mxCell id="hAIs70wJJehLwJ7YlZDq-123" value="Display Seats" style="shape=display;whiteSpace=wrap;html=1;fontSize=12;fontFamily=Verdana;fillColor=#d80073;fontColor=#ffffff;strokeColor=#A50040;" vertex="1" parent="WIyWlLk6GJQsqaUBKTNV-1">
          <mxGeometry x="335.01" y="970.0300000000001" width="110" height="40" as="geometry" />
        </mxCell>
        <mxCell id="hAIs70wJJehLwJ7YlZDq-131" style="edgeStyle=orthogonalEdgeStyle;rounded=0;orthogonalLoop=1;jettySize=auto;html=1;exitX=1;exitY=0.5;exitDx=0;exitDy=0;fontSize=12;" edge="1" parent="WIyWlLk6GJQsqaUBKTNV-1" source="hAIs70wJJehLwJ7YlZDq-129">
          <mxGeometry relative="1" as="geometry">
            <mxPoint x="395.5" y="484" as="targetPoint" />
            <Array as="points">
              <mxPoint x="434" y="784" />
              <mxPoint x="656" y="784" />
              <mxPoint x="656" y="484" />
            </Array>
          </mxGeometry>
        </mxCell>
        <mxCell id="hAIs70wJJehLwJ7YlZDq-132" value="No" style="edgeLabel;html=1;align=center;verticalAlign=middle;resizable=0;points=[];fontSize=12;" vertex="1" connectable="0" parent="hAIs70wJJehLwJ7YlZDq-131">
          <mxGeometry x="-0.6887" y="4" relative="1" as="geometry">
            <mxPoint as="offset" />
          </mxGeometry>
        </mxCell>
        <mxCell id="hAIs70wJJehLwJ7YlZDq-133" style="edgeStyle=orthogonalEdgeStyle;rounded=0;orthogonalLoop=1;jettySize=auto;html=1;exitX=0.5;exitY=1;exitDx=0;exitDy=0;entryX=0;entryY=0;entryDx=56.25;entryDy=0;entryPerimeter=0;fontSize=12;" edge="1" parent="WIyWlLk6GJQsqaUBKTNV-1" source="hAIs70wJJehLwJ7YlZDq-129" target="hAIs70wJJehLwJ7YlZDq-118">
          <mxGeometry relative="1" as="geometry" />
        </mxCell>
        <mxCell id="hAIs70wJJehLwJ7YlZDq-134" value="Yes" style="edgeLabel;html=1;align=center;verticalAlign=middle;resizable=0;points=[];fontSize=12;" vertex="1" connectable="0" parent="hAIs70wJJehLwJ7YlZDq-133">
          <mxGeometry x="-0.2552" relative="1" as="geometry">
            <mxPoint as="offset" />
          </mxGeometry>
        </mxCell>
        <mxCell id="hAIs70wJJehLwJ7YlZDq-129" value="Flights Found?" style="rhombus;whiteSpace=wrap;html=1;fillStyle=auto;fontSize=12;fontFamily=Verdana;fillColor=#e3c800;fontColor=#000000;strokeColor=#B09500;" vertex="1" parent="WIyWlLk6GJQsqaUBKTNV-1">
          <mxGeometry x="339.13" y="750.0300000000001" width="95" height="70" as="geometry" />
        </mxCell>
        <mxCell id="hAIs70wJJehLwJ7YlZDq-139" style="edgeStyle=orthogonalEdgeStyle;rounded=0;orthogonalLoop=1;jettySize=auto;html=1;exitX=1;exitY=0.5;exitDx=0;exitDy=0;exitPerimeter=0;fontSize=12;" edge="1" parent="WIyWlLk6GJQsqaUBKTNV-1" source="hAIs70wJJehLwJ7YlZDq-136">
          <mxGeometry relative="1" as="geometry">
            <mxPoint x="396" y="474" as="targetPoint" />
            <Array as="points">
              <mxPoint x="676" y="1130" />
              <mxPoint x="676" y="474" />
            </Array>
          </mxGeometry>
        </mxCell>
        <mxCell id="hAIs70wJJehLwJ7YlZDq-136" value="Save Record and Update Flight" style="strokeWidth=2;html=1;shape=mxgraph.flowchart.multi-document;whiteSpace=wrap;fontSize=12;fontFamily=Verdana;fillStyle=auto;fillColor=#6a00ff;fontColor=#ffffff;strokeColor=#3700CC;" vertex="1" parent="WIyWlLk6GJQsqaUBKTNV-1">
          <mxGeometry x="339.01" y="1100.03" width="113.5" height="60" as="geometry" />
        </mxCell>
      </root>
    </mxGraphModel>
  </diagram>
</mxfile>
